<svg xmlns="http://www.w3.org/2000/svg" xmlns:xlink="http://www.w3.org/1999/xlink" width="394" height="118" viewBox="0 0 394 118">
  <defs>
    <filter id="Ellipse_26" x="0" y="0" width="118" height="118" filterUnits="userSpaceOnUse">
      <feOffset dy="3" input="SourceAlpha"/>
      <feGaussianBlur stdDeviation="3" result="blur"/>
      <feFlood flood-opacity="0.302"/>
      <feComposite operator="in" in2="blur"/>
      <feComposite in="SourceGraphic"/>
    </filter>
    <filter id="Path_200" x="142" y="25" width="68" height="68" filterUnits="userSpaceOnUse">
      <feOffset dy="3" input="SourceAlpha"/>
      <feGaussianBlur stdDeviation="3" result="blur-2"/>
      <feFlood flood-opacity="0.302"/>
      <feComposite operator="in" in2="blur-2"/>
      <feComposite in="SourceGraphic"/>
    </filter>
  </defs>
  <g id="Group_267" data-name="Group 267" transform="translate(-995 -996)">
    <g transform="matrix(1, 0, 0, 1, 995, 996)" filter="url(#Ellipse_26)">
      <circle id="Ellipse_26-2" data-name="Ellipse 26" cx="50" cy="50" r="50" transform="translate(9 6)" fill="#fff"/>
    </g>
    <text id="Mutual_Recognition_Agreement_with_overseas_countries" data-name="Mutual Recognition 
Agreement with 
overseas countries" transform="translate(1235 1040)" fill="#d10b14" font-size="16" font-family="Ubuntu-Bold, Ubuntu" font-weight="700"><tspan x="0" y="0">Mutual Recognition </tspan><tspan x="0" y="18">Agreement with </tspan><tspan x="0" y="36">Overseas Countries</tspan></text>
    <g id="Group_233" data-name="Group 233" transform="translate(892 157)">
      <g transform="matrix(1, 0, 0, 1, 103, 839)" filter="url(#Path_200)">
        <path id="Path_200-2" data-name="Path 200" d="M25,0A25,25,0,1,1,0,25,25,25,0,0,1,25,0Z" transform="translate(151 31)" fill="#d10b14"/>
      </g>
      <text id="_9" data-name="9" transform="translate(279 902)" fill="#fff" font-size="18" font-family="Ubuntu-Regular, Ubuntu"><tspan x="-5" y="0">9</tspan></text>
    </g>
    <g id="noun_overseas_3859725" transform="translate(1022.906 1027)">
      <ellipse id="Ellipse_44" data-name="Ellipse 44" cx="2.722" cy="2.74" rx="2.722" ry="2.74" transform="translate(45.69 44.52)" fill="#d10b14"/>
      <path id="Path_282" data-name="Path 282" d="M52.555,25a3.914,3.914,0,1,0,3.889,3.914A3.914,3.914,0,0,0,52.555,25Z" transform="translate(-23.538 -15.238)" fill="#d10b14"/>
      <path id="Path_283" data-name="Path 283" d="M68.177,68.023,61.6,59.78A4.628,4.628,0,0,0,56,58.457l-1.116-1.372A2.445,2.445,0,0,0,54.8,54.2l-2.59-3.282V47.936a4.7,4.7,0,0,0-2.07-3.9A5.492,5.492,0,0,1,48.9,45.121a3.134,3.134,0,0,1,1.756,2.814v1.007l-.441-.558a.774.774,0,0,0-1.093-.126.787.787,0,0,0-.125,1.1l4.586,5.811a.862.862,0,0,1-.125,1.194.794.794,0,0,1-.6.179.824.824,0,0,1-.563-.324l-5.715-6.83a.774.774,0,0,0-1.1-.094.786.786,0,0,0-.094,1.1l5.261,6.287V58.9h-7V47.936a3.129,3.129,0,0,1,.868-2.164,5.4,5.4,0,0,1-1.473-.666,4.687,4.687,0,0,0-.951,2.83v.951l-3.875,5.931A2.373,2.373,0,0,0,42.1,57.552v2.126a.78.78,0,0,0,.306.619l-2.59,13.418a2.687,2.687,0,0,0,.559,2.219A2.627,2.627,0,0,0,44.934,75l1.845-6.183,2.547,6.395A2.684,2.684,0,0,0,51.841,76.9a2.713,2.713,0,0,0,2.227-1.155,2.6,2.6,0,0,0,.319-2.39l-2.45-6.811.052-6.322a.782.782,0,0,0,.221-.545V57.993a2.361,2.361,0,0,0,.483.106,2.4,2.4,0,0,0,.258.014,2.316,2.316,0,0,0,.676-.108l1.065,1.31-.1.072a2.358,2.358,0,0,0-.426,3.355l7.487,9.379a4.272,4.272,0,0,1,7.444-.178c.027-.126.052-.254.068-.383a4.682,4.682,0,0,0-.991-3.537ZM42.1,54.774l-1.213,1.8a.833.833,0,0,1-1.148.224.791.791,0,0,1-.221-1.114L42.1,51.736ZM52.924,73.889a1.04,1.04,0,0,1-.129.958,1.17,1.17,0,0,1-2.024-.216l-3.228-8.1V63.175a.778.778,0,1,0-1.556,0v2.856l-2.543,8.519a1.076,1.076,0,0,1-1.87.388,1.121,1.121,0,0,1-.232-.925l2.616-13.553h6.474l-.051,6.212a.786.786,0,0,0,.046.273Z" transform="translate(-17.019 -26.901)" fill="#d10b14"/>
      <path id="Path_284" data-name="Path 284" d="M47.192,44.015c.022-.029.05-.05.074-.077-.041-.047-.077-.1-.116-.146a4.3,4.3,0,0,0-.466,1.016A6.387,6.387,0,0,1,47.192,44.015Z" transform="translate(-22.355 -26.686)" fill="#d10b14"/>
      <path id="Path_285" data-name="Path 285" d="M15.521,16.881c.116.16.184.162.213.163.162,0,.67-.121,1.774-1.43a7.071,7.071,0,0,1,2.7-1.823c.136-.062.273-.126.412-.191a2.361,2.361,0,0,0,1.413-1.295,3.386,3.386,0,0,0-.006-1.613c-.021-.122-.041-.278-.063-.454a8.166,8.166,0,0,0-.221-1.213,20.008,20.008,0,0,0-6.531,7.608A.774.774,0,0,1,15.521,16.881Z" transform="translate(-3.173 -5.493)" fill="#d10b14"/>
      <path id="Path_286" data-name="Path 286" d="M73.35,33.276l.117.006a1.7,1.7,0,0,0,1.148-.232.813.813,0,0,0,.1-.115,1.671,1.671,0,0,0-.355-1.349A3.592,3.592,0,0,0,72,30.908a5.484,5.484,0,0,1,.239,1.6,5.424,5.424,0,0,1-.05.7C72.513,33.231,72.891,33.253,73.35,33.276Z" transform="translate(-37.788 -18.836)" fill="#d10b14"/>
      <path id="Path_287" data-name="Path 287" d="M68.867,8.72l-.052,0c-1.265-.1-2.842.153-2.9.624l0,.011v.015a4.425,4.425,0,0,1-.4,1.686,5.5,5.5,0,0,1,1.759,1.591c1.632-.016,3.268.14,4.261,1.168a3.156,3.156,0,0,1,.791,2.53,1.8,1.8,0,0,1-.609,1.182,3.057,3.057,0,0,1-2.28.636l-.114-.006c-.566-.028-1.042-.057-1.451-.088a6.268,6.268,0,0,1,2.755,5.2V25.7l2.12,2.686c.011-.034.018-.067.03-.1a7.857,7.857,0,0,1,1.354-2.169c.218-.276.424-.536.608-.8.093-.135.21-.279.333-.429a3.1,3.1,0,0,0,.445-.635.588.588,0,0,0-.07-.057,4.148,4.148,0,0,0-.881-.444,3.39,3.39,0,0,1-2.022-1.7,2.406,2.406,0,0,1-.078-2.038,1.831,1.831,0,0,1,1.258-1.017,2.581,2.581,0,0,1,1.508.179,2.475,2.475,0,0,0,.5.14,2.315,2.315,0,0,0,.362.014c-.042-.1-.116-.237-.166-.33a3.05,3.05,0,0,1-.321-.753,2.077,2.077,0,0,1,.441-1.816,2.1,2.1,0,0,1,1.729-.746,3.065,3.065,0,0,1,1.527.628,2.46,2.46,0,0,0,.708.375,3.3,3.3,0,0,0,1.792-.226c.242-.077.5-.158.777-.224A19.958,19.958,0,0,0,70.825,3.489c-.019.011-.036.024-.056.033-.42.192-.406.769-.224,1.836l.028.163a3.336,3.336,0,0,1-.3,2.591,1.634,1.634,0,0,1-1.229.6C68.982,8.719,68.925,8.721,68.867,8.72Z" transform="translate(-33.871 -2.124)" fill="#d10b14"/>
      <path id="Path_288" data-name="Path 288" d="M92.563,39.589a3.7,3.7,0,0,1-1.241-.6,1.948,1.948,0,0,0-.752-.372.538.538,0,0,0-.556.65,2.171,2.171,0,0,0,.172.356,1.752,1.752,0,0,1,.027,2.122,1.987,1.987,0,0,1-1.75.5,3.827,3.827,0,0,1-.865-.219,1.4,1.4,0,0,0-.622-.137.261.261,0,0,0-.207.153.848.848,0,0,0,.055.681,1.878,1.878,0,0,0,1.213.947,5.36,5.36,0,0,1,1.2.622,1.614,1.614,0,0,1,.72,1.108,2.523,2.523,0,0,1-.8,1.848,3.855,3.855,0,0,0-.251.325c-.215.309-.446.6-.673.889A6.515,6.515,0,0,0,87.13,50.2a6.592,6.592,0,0,0-.294,1.746,12.837,12.837,0,0,1-.157,1.3,6.265,6.265,0,0,1,1.018-.09,6.179,6.179,0,0,1,4.725,2.2,20.028,20.028,0,0,0,3.433-16.236c-.227.055-.458.125-.7.2A4.732,4.732,0,0,1,92.563,39.589Zm-.227,10.788c-.5.869-1.343,1.793-2.239,1.793h-.02a.783.783,0,0,1-.012-1.566,3.079,3.079,0,0,0,1.288-2.172.783.783,0,0,1,1.21-.99c.658.708.313,1.981-.227,2.936Z" transform="translate(-46.752 -23.548)" fill="#d10b14"/>
      <path id="Path_289" data-name="Path 289" d="M16.022,56.18l.018-.083a7.9,7.9,0,0,1,.33-1.068,3.563,3.563,0,0,0,.316-1.39c-.061-.811-.724-1.38-1.492-2.038a4.8,4.8,0,0,1-2.053-3.042,15.2,15.2,0,0,1-.038-2.888c-.082-1.162-2.341-1.3-2.8-1.312a.782.782,0,0,1-.132-.018A20.249,20.249,0,0,0,10,46.948a19.95,19.95,0,0,0,4.68,12.873.766.766,0,0,1,.262-.014.887.887,0,0,0,.766-.155,1.993,1.993,0,0,0,.185-1.556,4.781,4.781,0,0,1,.129-1.916Z" transform="translate(0 -27.036)" fill="#d10b14"/>
      <path id="Path_290" data-name="Path 290" d="M24.481,33.851a2.322,2.322,0,0,1-.18-.6c-.122.012-.245.018-.368.018a3.931,3.931,0,0,1-3.269-6.125l3.3-5.053a5.124,5.124,0,0,1-.643-3.36,5.79,5.79,0,0,1,1.314-3.071,5.449,5.449,0,0,1,6.292-7.3,2.229,2.229,0,0,0,.307-1.208,1.2,1.2,0,0,1,.014-.129h0c.282-2.229,3.989-2.032,4.552-1.99h.034a.259.259,0,0,0,.1-.019c.051-.054.156-.3-.019-1.358L35.888,3.5A4.144,4.144,0,0,1,36.073.8,19.706,19.706,0,0,0,30.5,0c-.292,0-.582.01-.871.022a4.25,4.25,0,0,1,.078.98V1.1a2.879,2.879,0,0,1-.829,2.426,4.24,4.24,0,0,1-1.256.656c-.148.057-.3.112-.438.177a6.389,6.389,0,0,0-1.876,1.153,1.664,1.664,0,0,0-.116.128.783.783,0,0,1-1.48.488,1.486,1.486,0,0,1,.476-1.712,7.687,7.687,0,0,1,2.344-1.482c.173-.079.353-.148.534-.217a2.991,2.991,0,0,0,.815-.4c.248-.2.264-.611.26-1.21V.989a3.7,3.7,0,0,0-.03-.6.777.777,0,0,1-.17-.217,19.609,19.609,0,0,0-7.367,2.512,5.979,5.979,0,0,1,.44,1.865c.019.151.036.285.054.389a4.744,4.744,0,0,1-.058,2.389,3.951,3.951,0,0,1-2.225,2.2c-.142.067-.285.133-.426.2a5.679,5.679,0,0,0-2.159,1.41c-.782.928-1.823,1.986-2.962,1.986h-.066a1.737,1.737,0,0,1-1.123-.473,19.9,19.9,0,0,0-.95,3.17c2.6.106,4.186,1.171,4.238,2.86a.733.733,0,0,1,0,.087,13.666,13.666,0,0,0,.029,2.636c.093.811.752,1.376,1.516,2.031a4.617,4.617,0,0,1,2.034,3.11,4.842,4.842,0,0,1-.4,2.039,6.647,6.647,0,0,0-.269.857l-.018.084a3.485,3.485,0,0,0-.12,1.315,3.426,3.426,0,0,1-.589,2.911,2.043,2.043,0,0,1-.836.53,19.835,19.835,0,0,0,6.872,4.388Z" transform="translate(-0.671)" fill="#d10b14"/>
    </g>
  </g>
</svg>
