<svg xmlns="http://www.w3.org/2000/svg" xmlns:xlink="http://www.w3.org/1999/xlink" width="394" height="118" viewBox="0 0 394 118">
  <defs>
    <filter id="Ellipse_26" x="0" y="0" width="118" height="118" filterUnits="userSpaceOnUse">
      <feOffset dy="3" input="SourceAlpha"/>
      <feGaussianBlur stdDeviation="3" result="blur"/>
      <feFlood flood-opacity="0.302"/>
      <feComposite operator="in" in2="blur"/>
      <feComposite in="SourceGraphic"/>
    </filter>
    <filter id="Path_200" x="142" y="28" width="68" height="68" filterUnits="userSpaceOnUse">
      <feOffset dy="3" input="SourceAlpha"/>
      <feGaussianBlur stdDeviation="3" result="blur-2"/>
      <feFlood flood-opacity="0.302"/>
      <feComposite operator="in" in2="blur-2"/>
      <feComposite in="SourceGraphic"/>
    </filter>
  </defs>
  <g id="Group_273" data-name="Group 273" transform="translate(-120 -996)">
    <g transform="matrix(1, 0, 0, 1, 120, 996)" filter="url(#Ellipse_26)">
      <circle id="Ellipse_26-2" data-name="Ellipse 26" cx="50" cy="50" r="50" transform="translate(9 6)" fill="#fff"/>
    </g>
    <text id="Skills_demand_gaps_analysis" data-name="Skills demand &amp; 
gaps analysis" transform="translate(387 1052)" fill="#2b2c95" font-size="16" font-family="Ubuntu-Bold, Ubuntu" font-weight="700"><tspan x="0" y="0">Skills Demand &amp; </tspan><tspan x="0" y="18">Gaps Analysis</tspan></text>
    <g id="Group_126" data-name="Group 126" transform="translate(17 160)">
      <g transform="matrix(1, 0, 0, 1, 103, 836)" filter="url(#Path_200)">
        <path id="Path_200-2" data-name="Path 200" d="M25,0A25,25,0,1,1,0,25,25,25,0,0,1,25,0Z" transform="translate(151 34)" fill="#2b2c95"/>
      </g>
      <text id="_3" data-name="3" transform="translate(279 902)" fill="#fff" font-size="18" font-family="Ubuntu-Regular, Ubuntu"><tspan x="-5" y="0">3</tspan></text>
    </g>
    <g id="noun_skills_2613123" transform="translate(152.459 1026.25)">
      <g id="Group_260" data-name="Group 260" transform="translate(4.469 0.75)">
        <g id="Group_258" data-name="Group 258" transform="translate(15.848 17.097)">
          <path id="Path_239" data-name="Path 239" d="M28.672,25.5A3.026,3.026,0,1,1,31.7,28.529,3.038,3.038,0,0,1,28.672,25.5Z" transform="translate(-25.465 -22.47)" fill="#2b2c95"/>
          <path id="Path_240" data-name="Path 240" d="M37.075,36.073v2.3a.6.6,0,0,1-.591.591H25.193a.59.59,0,0,1-.591-.591v-2.3a4.409,4.409,0,0,1,4.4-4.413H32.67A4.414,4.414,0,0,1,37.075,36.073Z" transform="translate(-24.602 -24.419)" fill="#2b2c95"/>
        </g>
        <g id="Group_259" data-name="Group 259">
          <path id="Path_241" data-name="Path 241" d="M47.259,34.632a2.69,2.69,0,0,0-3.315.52l-2.126-1.22,4.551-7.89a.606.606,0,0,0,0-.591l-4.457-7.724,2.032-1.165A2.69,2.69,0,0,0,48.259,13.4a2.691,2.691,0,0,0-4.905,2.134l-2.032,1.173L36.715,8.734a.585.585,0,0,0-.512-.291H27.141V6.065a2.685,2.685,0,1,0-1.181,0V8.443H16.9a.582.582,0,0,0-.5.291l-4.606,7.984L9.731,15.537a2.684,2.684,0,1,0-.583,1.024L11.2,17.742,6.739,25.451a.569.569,0,0,0,0,.591l4.543,7.874L9.141,35.152a2.68,2.68,0,1,0,.622,2.52,2.614,2.614,0,0,0-.031-1.5l2.15-1.228,4.512,7.819a.582.582,0,0,0,.5.291h9.063v2.378a2.693,2.693,0,1,0,1.181,0V43.057H36.2a.585.585,0,0,0,.512-.291l4.5-7.811,2.134,1.22a2.691,2.691,0,1,0,3.906-1.543Zm-6.835-6.8-4.661.417a8.987,8.987,0,0,1-1.157,2.819l2.984,3.591-2.457,2.472-3.591-3a9.062,9.062,0,0,1-2.827,1.173L28.3,39.963H24.81l-.417-4.654a9.335,9.335,0,0,1-2.827-1.173l-3.583,3-2.472-2.472,3-3.591a9.193,9.193,0,0,1-1.165-2.819l-4.661-.417V24.348l4.661-.417A9.185,9.185,0,0,1,18.518,21.1l-3.008-3.583,2.472-2.465,3.583,3a9.335,9.335,0,0,1,2.827-1.173l.417-4.654H28.3l.417,4.654a9.062,9.062,0,0,1,2.827,1.173l3.591-3,2.457,2.465-3,3.583a8.817,8.817,0,0,1,1.173,2.835l4.661.417Z" transform="translate(-4.469 -0.75)" fill="#2b2c95"/>
        </g>
      </g>
    </g>
  </g>
</svg>
