<svg xmlns="http://www.w3.org/2000/svg" xmlns:xlink="http://www.w3.org/1999/xlink" width="98.756" height="81.975" viewBox="0 0 98.756 81.975">
  <defs>
    <linearGradient id="linear-gradient" x1="0.5" x2="0.5" y2="1" gradientUnits="objectBoundingBox">
      <stop offset="0" stop-color="#2b2c95"/>
      <stop offset="1" stop-color="#00aff0"/>
    </linearGradient>
  </defs>
  <g id="Group_178" data-name="Group 178" transform="translate(-100.622 -40)">
    <path id="Path_208" data-name="Path 208" d="M594.652,13766.815s-7.05-21.229,18.56-17.174,50.63-13.526,56.574-9.905,43.584,44.643,6.817,58.843-42.092,38.038-60.6,8.624S594.652,13766.815,594.652,13766.815Z" transform="translate(-493.141 -13699.241)" fill="url(#linear-gradient)"/>
    <g id="noun_coaching_3939343" transform="translate(131.341 60.987)">
      <path id="Path_40" data-name="Path 40" d="M28.833,34.525a4.789,4.789,0,0,1,.4,1.924v2.979a1.593,1.593,0,0,1-1.593,1.592H21.252a1.593,1.593,0,0,1-1.592-1.592V36.449a4.785,4.785,0,0,1,.4-1.923,5.872,5.872,0,0,0,8.77,0Zm12.886,0a4.786,4.786,0,0,1,.4,1.924v2.979A1.592,1.592,0,0,1,40.53,41.02H34.138a1.592,1.592,0,0,1-1.592-1.593s0-2.979,0-2.978a4.785,4.785,0,0,1,.4-1.923,5.871,5.871,0,0,0,8.77,0Zm-17.272-8.19a4.283,4.283,0,1,0,4.283,4.283A4.285,4.285,0,0,0,24.447,26.334Zm12.886,0a4.283,4.283,0,1,0,4.283,4.283A4.285,4.285,0,0,0,37.334,26.334ZM29.126,14.744H22.051a1.78,1.78,0,0,1,0-3.561h8.855a1.78,1.78,0,0,1,1.78,1.78v7.57h.8a.98.98,0,0,1,.8,1.539L31.71,25.78a.98.98,0,0,1-1.609,0l-2.577-3.707a.98.98,0,0,1,.8-1.539h.8Zm-15.3-1.2A7.305,7.305,0,0,0,16.5,11.788a6.472,6.472,0,0,1,1.247,3.818v4.543a1.6,1.6,0,0,1-1.6,1.6H6.4a1.6,1.6,0,0,1-1.6-1.6V15.607A6.471,6.471,0,0,1,6.049,11.79a7.3,7.3,0,0,0,2.676,1.752l1.056,2.877a1.592,1.592,0,0,0,2.99,0l1.057-2.877ZM11.276,15.87l-.7-1.9q.345.033.7.033c.235,0,.468-.011.7-.033Zm0-14.85a5.695,5.695,0,1,0,5.695,5.695A5.7,5.7,0,0,0,11.276,1.02Z" transform="translate(-4.804 -1.02)" fill="#fff"/>
    </g>
  </g>
</svg>
