<svg xmlns="http://www.w3.org/2000/svg" xmlns:xlink="http://www.w3.org/1999/xlink" width="394" height="161.785" viewBox="0 0 394 161.785">
  <defs>
    <filter id="Path_200" x="184" y="25" width="68" height="68" filterUnits="userSpaceOnUse">
      <feOffset dy="3" input="SourceAlpha"/>
      <feGaussianBlur stdDeviation="3" result="blur"/>
      <feFlood flood-opacity="0.302"/>
      <feComposite operator="in" in2="blur"/>
      <feComposite in="SourceGraphic"/>
    </filter>
    <filter id="Ellipse_25" x="276" y="0" width="118" height="118" filterUnits="userSpaceOnUse">
      <feOffset dy="3" input="SourceAlpha"/>
      <feGaussianBlur stdDeviation="3" result="blur-2"/>
      <feFlood flood-opacity="0.302"/>
      <feComposite operator="in" in2="blur-2"/>
      <feComposite in="SourceGraphic"/>
    </filter>
  </defs>
  <g id="Group_269" data-name="Group 269" transform="translate(-564 -873)">
    <g id="Group_200" data-name="Group 200" transform="translate(829.958 4.19) rotate(20)">
      <line id="Line_2" data-name="Line 2" x1="11.85" y2="87.319" transform="translate(268.365 907.18)" fill="none" stroke="#00aff0" stroke-width="1"/>
    </g>
    <text id="Awareness_raising" data-name="Awareness raising" transform="translate(706 935)" fill="#d10b14" font-size="16" font-family="Ubuntu-Bold, Ubuntu" font-weight="700"><tspan x="-141" y="0">Awareness Raising</tspan></text>
    <g id="Group_122" data-name="Group 122" transform="translate(503 34)">
      <g transform="matrix(1, 0, 0, 1, 61, 839)" filter="url(#Path_200)">
        <path id="Path_200-2" data-name="Path 200" d="M25,0A25,25,0,1,1,0,25,25,25,0,0,1,25,0Z" transform="translate(193 31)" fill="#d10b14"/>
      </g>
      <text id="_5" data-name="5" transform="translate(279 902)" fill="#fff" font-size="18" font-family="Ubuntu-Regular, Ubuntu"><tspan x="-5" y="0">5</tspan></text>
    </g>
    <g transform="matrix(1, 0, 0, 1, 564, 873)" filter="url(#Ellipse_25)">
      <circle id="Ellipse_25-2" data-name="Ellipse 25" cx="50" cy="50" r="50" transform="translate(285 6)" fill="#fff"/>
    </g>
    <g id="noun_Awareness_3859652" transform="translate(874 891.813)">
      <path id="Path_243" data-name="Path 243" d="M2.623,32.258l.944.46a.783.783,0,1,0,.687-1.408l-.944-.46a.783.783,0,0,0-.687,1.408Z" transform="translate(-1.328 -6.552)" fill="#d10b14"/>
      <path id="Path_244" data-name="Path 244" d="M8.3,26.216a.794.794,0,0,0,.994.489.785.785,0,0,0,.489-1l-.335-.984a.783.783,0,1,0-1.483.505Z" transform="translate(-4.818 -2.553)" fill="#d10b14"/>
      <path id="Path_245" data-name="Path 245" d="M.816,40.268c.078,0,1.257-.358,1.257-.358a.784.784,0,1,0-.471-1.5l-1.021.322a.784.784,0,0,0-.511.983.8.8,0,0,0,.747.547Z" transform="translate(-0.02 -11.202)" fill="#d10b14"/>
      <path id="Path_246" data-name="Path 246" d="M6.3,26.127a.784.784,0,0,0,.36,1.048l.249.122-2.865,5.45a.784.784,0,0,0,1.114,1.026,7.126,7.126,0,0,1,3.9-1.093,11.169,11.169,0,0,1,4.558,1.072l-1.771,2.207a2.235,2.235,0,0,0,.416,3.175,2.355,2.355,0,0,0,3.209-.4l2.348-2.928a8.43,8.43,0,0,0,1.221.215A3.9,3.9,0,0,0,22,34.573a3.085,3.085,0,0,0,.622-1.176,3.569,3.569,0,0,0-1.279-3.956c-.041-.031-4.188-2.062-4.188-2.062-.049-.021-4.938-2.2-5.158-6.635a.783.783,0,0,0-1.475-.326L7.636,25.91l-.291-.143A.783.783,0,0,0,6.3,26.127Zm7.952,11.626a.779.779,0,0,1-1.053.125.655.655,0,0,1-.129-.936l1.991-2.482,1.317.643Zm6.2-7.022a2.03,2.03,0,0,1,.662,2.247,2.271,2.271,0,0,1-2.636,1.407l-1.347-.657,1.932-3.674Zm-9.564-7.641a8.21,8.21,0,0,0,.764,1.559l-3.418,6.5a8.94,8.94,0,0,0-1.75.317Z" transform="translate(-2.403)" fill="#d10b14"/>
      <path id="Path_247" data-name="Path 247" d="M119.487,32.358a.788.788,0,0,0,1.047.36l.944-.46a.783.783,0,1,0-.687-1.408l-.944.46a.784.784,0,0,0-.361,1.048Z" transform="translate(-72.774 -6.552)" fill="#d10b14"/>
      <path id="Path_248" data-name="Path 248" d="M115.757,26.705a.793.793,0,0,0,.994-.489l.335-.984a.783.783,0,1,0-1.483-.505l-.335.984a.785.785,0,0,0,.489,1Z" transform="translate(-70.231 -2.553)" fill="#d10b14"/>
      <path id="Path_249" data-name="Path 249" d="M121.4,38.927a.783.783,0,0,0,.511.983s1.178.358,1.257.358a.8.8,0,0,0,.747-.547.784.784,0,0,0-.511-.983l-1.021-.322a.782.782,0,0,0-.982.512Z" transform="translate(-73.963 -11.201)" fill="#d10b14"/>
      <path id="Path_250" data-name="Path 250" d="M76.746,34.573a3.9,3.9,0,0,0,2.961,1.45,8.431,8.431,0,0,0,1.221-.215l2.348,2.928a2.355,2.355,0,0,0,3.209.4,2.235,2.235,0,0,0,.416-3.174L85.13,33.754a11.168,11.168,0,0,1,4.558-1.072,7.123,7.123,0,0,1,3.9,1.093.784.784,0,0,0,1.114-1.026L91.84,27.3l.248-.122a.784.784,0,0,0-.687-1.409l-.291.143-2.887-5.493a.783.783,0,0,0-1.476.326c-.22,4.437-5.109,6.614-5.158,6.635,0,0-4.147,2.031-4.188,2.062A3.57,3.57,0,0,0,76.123,33.4a3.081,3.081,0,0,0,.622,1.176Zm8.934,2.371a.655.655,0,0,1-.129.936.78.78,0,0,1-1.053-.125L82.372,35.1l1.317-.643Zm2.179-13.853,4.4,8.378a8.936,8.936,0,0,0-1.75-.317L87.1,24.65a8.2,8.2,0,0,0,.764-1.559ZM78.3,30.732l1.389-.678,1.932,3.674-1.347.657a2.271,2.271,0,0,1-2.636-1.407A2.029,2.029,0,0,1,78.3,30.732Z" transform="translate(-46.343 0)" fill="#d10b14"/>
      <path id="Path_251" data-name="Path 251" d="M56.689,73.026a4.7,4.7,0,1,0,4.7,4.7A4.7,4.7,0,0,0,56.689,73.026Zm0,7.84a.784.784,0,1,1,.783-.784A.784.784,0,0,1,56.689,80.866Zm.783-3.135a.783.783,0,0,1-1.566,0V75.379a.783.783,0,0,1,1.566,0Z" transform="translate(-31.689 -32.353)" fill="#d10b14"/>
      <path id="Path_252" data-name="Path 252" d="M49.991,51.7a2.338,2.338,0,0,1-3.573,1.654,5.558,5.558,0,0,0-3.054-.848,8.38,8.38,0,0,0-1.95.246l.389.487a3.751,3.751,0,0,1,.792,2.842A3.814,3.814,0,0,1,39.1,59.4q-.157.012-.316.012a3.9,3.9,0,0,1-2.066-.583,3.812,3.812,0,0,1-.966-.86l-1.744-2.182a4.112,4.112,0,0,1-.595.056,5.42,5.42,0,0,1-4.148-2.008,4.63,4.63,0,0,1-.932-1.769c-.043-.155-.077-.31-.107-.464-.009-.047-.015-.093-.023-.139-.018-.11-.034-.22-.046-.329q-.008-.075-.014-.15c-.009-.111-.014-.222-.017-.332,0-.042,0-.084,0-.126,0-.15.005-.3.018-.446-.058-.027-.088-.051-.086-.07H21.947c0,.019-.03.042-.087.068a5.655,5.655,0,0,1-.191,1.986,4.652,4.652,0,0,1-.934,1.773,5.423,5.423,0,0,1-4.146,2.005,4.1,4.1,0,0,1-.595-.056l-1.745,2.182a3.9,3.9,0,0,1-5.353.676A3.824,3.824,0,0,1,7.4,56.083,3.753,3.753,0,0,1,8.2,53.24l.39-.487a8.775,8.775,0,0,0-1.452-.228c-1.039.162-2.01.317-2.865.46a5.151,5.151,0,0,0-.683.368,2.31,2.31,0,0,1-2.182.174l-.022.005a2.269,2.269,0,0,1-.644-.412,2.423,2.423,0,0,1-.725-1.163c-.029.148,0,18.4,0,18.4a2.363,2.363,0,0,0,2.343,2.378H47.645a2.363,2.363,0,0,0,2.343-2.378S50.013,53.389,49.991,51.7ZM14.068,66.087H6.26a.784.784,0,0,1,0-1.568h7.808a.784.784,0,0,1,0,1.568Zm0-3.135H6.26a.784.784,0,0,1,0-1.568h7.808a.784.784,0,0,1,0,1.568ZM25,70.006a6.271,6.271,0,1,1,6.247-6.271A6.262,6.262,0,0,1,25,70.006Zm18.74-3.92H35.932a.784.784,0,0,1,0-1.568H43.74a.784.784,0,0,1,0,1.568Zm0-3.135H35.932a.784.784,0,0,1,0-1.568H43.74a.784.784,0,0,1,0,1.568Z" transform="translate(0 -18.357)" fill="#d10b14"/>
    </g>
  </g>
</svg>
