<svg xmlns="http://www.w3.org/2000/svg" width="64" height="64" viewBox="0 0 64 64">
  <g id="Group_112" data-name="Group 112" transform="translate(0.204)">
    <g id="Ellipse_30" data-name="Ellipse 30" transform="translate(-0.204)" fill="none" stroke="#fff" stroke-width="1">
      <circle cx="32" cy="32" r="32" stroke="none"/>
      <circle cx="32" cy="32" r="31.5" fill="none"/>
    </g>
    <g id="noun_course_3428417" transform="translate(14.952 12)">
      <g id="Group_110" data-name="Group 110" transform="translate(0 0)">
        <g id="Group_109" data-name="Group 109">
          <g id="Group_108" data-name="Group 108" transform="translate(2.341)">
            <path id="Path_195" data-name="Path 195" d="M136.582,439.548v.01a2.249,2.249,0,0,0,2.247,2.245h24.9v-4.5h-24.9A2.249,2.249,0,0,0,136.582,439.548Z" transform="translate(-132.2 -401.803)" fill="#fff"/>
            <path id="Path_196" data-name="Path 196" d="M227.214,161.84v1.731a1.194,1.194,0,0,1-.806,1.129l-7.658,2.63v15.649h20.1V161.84Z" transform="translate(-207.324 -149.877)" fill="#fff"/>
            <path id="Path_197" data-name="Path 197" d="M137.21,225.572a4.567,4.567,0,0,1,1.97-.444h2.386V209.514l-4.6-1.588v17.761Z" transform="translate(-132.553 -192.025)" fill="#fff"/>
            <path id="Path_198" data-name="Path 198" d="M105.773,25.795,95.79,22,85.272,25.8l10.481,3.795Z" transform="translate(-85.272 -22)" fill="#fff"/>
            <path id="Path_199" data-name="Path 199" d="M133.576,113.836v-5.329l-6.563,2.487a1.2,1.2,0,0,1-.829.006l-7.205-2.609v5.445l7.277,2.513Z" transform="translate(-116.099 -101.007)" fill="#fff"/>
          </g>
          <rect id="Rectangle_88" data-name="Rectangle 88" width="2.725" height="2.748" transform="translate(0 15.505)" fill="#fff"/>
          <rect id="Rectangle_89" data-name="Rectangle 89" width="2.725" height="7.77" transform="translate(0 5.578)" fill="#fff"/>
        </g>
      </g>
    </g>
  </g>
</svg>
