<svg xmlns="http://www.w3.org/2000/svg" xmlns:xlink="http://www.w3.org/1999/xlink" width="394" height="159.275" viewBox="0 0 394 159.275">
  <defs>
    <filter id="Ellipse_26" x="0" y="0" width="118" height="118" filterUnits="userSpaceOnUse">
      <feOffset dy="3" input="SourceAlpha"/>
      <feGaussianBlur stdDeviation="3" result="blur"/>
      <feFlood flood-opacity="0.302"/>
      <feComposite operator="in" in2="blur"/>
      <feComposite in="SourceGraphic"/>
    </filter>
    <filter id="Path_200" x="142" y="27" width="68" height="68" filterUnits="userSpaceOnUse">
      <feOffset dy="3" input="SourceAlpha"/>
      <feGaussianBlur stdDeviation="3" result="blur-2"/>
      <feFlood flood-opacity="0.302"/>
      <feComposite operator="in" in2="blur-2"/>
      <feComposite in="SourceGraphic"/>
    </filter>
  </defs>
  <g id="Group_270" data-name="Group 270" transform="translate(-556 -748)">
    <g id="Group_199" data-name="Group 199" transform="translate(43.83 178.673) rotate(-30)">
      <line id="Line_2" data-name="Line 2" x2="5.002" y2="88.336" transform="translate(271.359 909.334)" fill="none" stroke="#d10b14" stroke-width="1"/>
    </g>
    <g transform="matrix(1, 0, 0, 1, 556, 748)" filter="url(#Ellipse_26)">
      <circle id="Ellipse_26-2" data-name="Ellipse 26" cx="50" cy="50" r="50" transform="translate(9 6)" fill="#fff"/>
    </g>
    <text id="Standards_curricula_development" data-name="Standards &amp; 
curricula 
development" transform="translate(846 792)" fill="#008641" font-size="16" font-family="Ubuntu-Bold, Ubuntu" font-weight="700"><tspan x="0" y="0">Standards &amp; </tspan><tspan x="0" y="18">Curricula </tspan><tspan x="0" y="36">Development</tspan></text>
    <g id="Group_121" data-name="Group 121" transform="translate(453 -89)">
      <g transform="matrix(1, 0, 0, 1, 103, 837)" filter="url(#Path_200)">
        <path id="Path_200-2" data-name="Path 200" d="M25,0A25,25,0,1,1,0,25,25,25,0,0,1,25,0Z" transform="translate(151 33)" fill="#008641"/>
      </g>
      <text id="_4" data-name="4" transform="translate(279 902)" fill="#fff" font-size="18" font-family="Ubuntu-Regular, Ubuntu"><tspan x="-5" y="0">4</tspan></text>
    </g>
    <g id="noun_curriculum_3899569" transform="translate(590.206 778.734)">
      <g id="Group_261" data-name="Group 261" transform="translate(0.771 0.264)">
        <path id="Path_242" data-name="Path 242" d="M-125.415,196.973a2.1,2.1,0,0,0-2.121,2.12V246.9a2.249,2.249,0,0,0,1.635-2.217v-22.05a4.314,4.314,0,0,1,4.31-4.313l25.114.006V204.006a.545.545,0,0,1,0-.266v-1.55h-2.006a3.215,3.215,0,0,1-3.21-3.211v-2.006Zm24.811.771v1.236a2.1,2.1,0,0,0,2.121,2.12h1.236Zm-23.117,3.588h6.539a.545.545,0,0,1,.544.546v7.628a.545.545,0,0,1-.544.546h-6.539a.545.545,0,0,1-.386-.16.545.545,0,0,1-.16-.386v-7.628a.545.545,0,0,1,.16-.386.545.545,0,0,1,.386-.16Zm.544,1.09v6.539h5.449v-6.539Zm27.789,2.2v13.709l10.14,0v-1.45a3.2,3.2,0,0,0-3.22-3.224h-4.491l-.05,0-.052-.01h0a.545.545,0,0,1-.194-.091h0a.545.545,0,0,1-.168-.208v0q-.011-.024-.019-.048v0q-.009-.025-.015-.051t-.01-.053h0q0-.026,0-.051s0,0,0,0,0-.01,0-.015v-5.541a3.226,3.226,0,0,0-.941-2.289,3.182,3.182,0,0,0-.966-.664Zm-33.238.142c-.074.042-.147.086-.217.134a3.232,3.232,0,0,0-.476.393,3.213,3.213,0,0,0-.941,2.284v37.113a2.249,2.249,0,0,0,1.635,2.217Zm14.712.93h7.628a.545.545,0,0,1,.545.545.545.545,0,0,1-.545.545h-7.628a.545.545,0,0,1-.545-.545.545.545,0,0,1,.545-.545Zm0,3.269h11.987a.545.545,0,0,1,.545.545.545.545,0,0,1-.545.545h-11.987a.545.545,0,0,1-.545-.545.545.545,0,0,1,.545-.545Zm-9.808,3.269h21.8a.545.545,0,0,1,.545.545.545.545,0,0,1-.545.545h-21.8a.545.545,0,0,1-.545-.545.545.545,0,0,1,.545-.545Zm0,3.269h21.8a.545.545,0,0,1,.545.545.545.545,0,0,1-.545.545h-21.8a.545.545,0,0,1-.545-.545.545.545,0,0,1,.545-.545Zm2.13,3.913a3.2,3.2,0,0,0-3.22,3.223v22.05a3.431,3.431,0,0,1-.867,2.288h40.245a3.2,3.2,0,0,0,3.22-3.224v-7.386l-.01-16.941-13.645,0a.547.547,0,0,1-.125,0Zm18.1,6.223h0a.545.545,0,0,1,.159.032l14.1,5.07a.545.545,0,0,1,.4.357.545.545,0,0,1-.1.526l-.012.015h0a.545.545,0,0,1-.272.165l-2.647.952v5.286a2.06,2.06,0,0,1,1.491,1.976,2.053,2.053,0,0,1-2.036,2.054,2.054,2.054,0,0,1-2.037-2.054,2.061,2.061,0,0,1,1.492-1.976v-4.894l-1.813.652v2.622a.542.542,0,0,1-.006.069,1,1,0,0,1-.343.64,2.242,2.242,0,0,1-.625.378,8.873,8.873,0,0,1-1.877.516,34.18,34.18,0,0,1-5.9.451,34.174,34.174,0,0,1-5.9-.451,8.876,8.876,0,0,1-1.878-.516,2.249,2.249,0,0,1-.625-.378,1,1,0,0,1-.339-.6.544.544,0,0,1-.006-.11V233.8l-5.6-2.013a.545.545,0,0,1-.367-.548.545.545,0,0,1,.429-.5l14.1-5.07a.543.543,0,0,1,.155-.031h.054Zm-.025,1.123-12.552,4.513,3.8,1.367a.542.542,0,0,1,.006-.065,1,1,0,0,1,.341-.624,2.248,2.248,0,0,1,.625-.378,8.88,8.88,0,0,1,1.878-.516,34.172,34.172,0,0,1,5.9-.451,34.192,34.192,0,0,1,5.9.451,8.863,8.863,0,0,1,1.877.516,2.245,2.245,0,0,1,.625.378,1,1,0,0,1,.342.629.546.546,0,0,1,.006.06l3.8-1.368Zm0,4.937a33.369,33.369,0,0,0-5.7.433,8.176,8.176,0,0,0-1.64.444,1.4,1.4,0,0,0-.317.18v2.532a9.4,9.4,0,0,1,1.76-.468,34.184,34.184,0,0,1,5.9-.45,34.192,34.192,0,0,1,5.9.45,9.4,9.4,0,0,1,1.759.468v-2.532a1.435,1.435,0,0,0-.317-.179,8.156,8.156,0,0,0-1.64-.444,33.368,33.368,0,0,0-5.7-.433Zm0,3.759a33.37,33.37,0,0,0-5.7.433,8.161,8.161,0,0,0-1.64.444,1.033,1.033,0,0,0-.154.088,1.023,1.023,0,0,0,.154.088,8.184,8.184,0,0,0,1.64.443,33.356,33.356,0,0,0,5.7.433,33.368,33.368,0,0,0,5.7-.433,8.171,8.171,0,0,0,1.64-.443,1.033,1.033,0,0,0,.154-.088,1.013,1.013,0,0,0-.154-.088,8.171,8.171,0,0,0-1.64-.444A33.369,33.369,0,0,0-103.517,235.455Zm11.109,3.6a.948.948,0,0,0-.947.964.947.947,0,0,0,.947.964.947.947,0,0,0,.947-.964A.948.948,0,0,0-92.409,239.051Z" transform="translate(130.259 -196.973)" fill="#00873f"/>
      </g>
    </g>
  </g>
</svg>
