<svg xmlns="http://www.w3.org/2000/svg" xmlns:xlink="http://www.w3.org/1999/xlink" width="393" height="165.528" viewBox="0 0 393 165.528">
  <defs>
    <filter id="Path_200" x="193" y="24" width="68" height="68" filterUnits="userSpaceOnUse">
      <feOffset dy="3" input="SourceAlpha"/>
      <feGaussianBlur stdDeviation="3" result="blur"/>
      <feFlood flood-opacity="0.302"/>
      <feComposite operator="in" in2="blur"/>
      <feComposite in="SourceGraphic"/>
    </filter>
    <filter id="Ellipse_25" x="275" y="0" width="118" height="118" filterUnits="userSpaceOnUse">
      <feOffset dy="3" input="SourceAlpha"/>
      <feGaussianBlur stdDeviation="3" result="blur-2"/>
      <feFlood flood-opacity="0.302"/>
      <feComposite operator="in" in2="blur-2"/>
      <feComposite in="SourceGraphic"/>
    </filter>
  </defs>
  <g id="Group_266" data-name="Group 266" transform="translate(-1004 -873)">
    <g id="Group_234" data-name="Group 234" transform="translate(1266.958 4.19) rotate(20)">
      <line id="Line_2" data-name="Line 2" x1="22.656" y2="91.252" transform="translate(268.365 903.247)" fill="none" stroke="#d10b14" stroke-width="1"/>
    </g>
    <text id="Assessment_certification" data-name="Assessment &amp;
certification" transform="translate(1004 926)" fill="#008641" font-size="16" font-family="Ubuntu-Bold, Ubuntu" font-weight="700"><tspan x="0" y="0">Assessment &amp;</tspan><tspan x="0" y="18">Certification</tspan></text>
    <g id="Group_122" data-name="Group 122" transform="translate(952 33)">
      <g transform="matrix(1, 0, 0, 1, 52, 840)" filter="url(#Path_200)">
        <path id="Path_200-2" data-name="Path 200" d="M25,0A25,25,0,1,1,0,25,25,25,0,0,1,25,0Z" transform="translate(202 30)" fill="#008641"/>
      </g>
      <text id="_8" data-name="8" transform="translate(279 902)" fill="#fff" font-size="18" font-family="Ubuntu-Regular, Ubuntu"><tspan x="-5" y="0">8</tspan></text>
    </g>
    <g transform="matrix(1, 0, 0, 1, 1004, 873)" filter="url(#Ellipse_25)">
      <circle id="Ellipse_25-2" data-name="Ellipse 25" cx="50" cy="50" r="50" transform="translate(284 6)" fill="#fff"/>
    </g>
    <g id="noun_Certificate_4088489" transform="translate(1313 904)">
      <g id="Group_45" data-name="Group 45" transform="translate(0 0)">
        <path id="Path_39" data-name="Path 39" d="M4.693.529A4.154,4.154,0,0,0,.529,4.693V33.031A4.152,4.152,0,0,0,4.693,37.2H27.517a9.881,9.881,0,0,1-.286-1.668H8.028a.836.836,0,0,1-.833-.83,4.161,4.161,0,0,0-4.168-4.168.833.833,0,0,1-.83-.83V8.023a.833.833,0,0,1,.83-.83A4.161,4.161,0,0,0,7.194,3.024a.836.836,0,0,1,.833-.83h35a.836.836,0,0,1,.833.83,4.161,4.161,0,0,0,4.168,4.168.833.833,0,0,1,.83.83V29.7a.833.833,0,0,1-.83.83,4.141,4.141,0,0,0-1.6.321,10.041,10.041,0,0,1,.462,6.312,4.158,4.158,0,0,0,3.641-4.131V4.693A4.156,4.156,0,0,0,46.364.529ZM8.8,3.861A5.821,5.821,0,0,1,3.863,8.8V28.926A5.819,5.819,0,0,1,8.8,33.861H27.231a10,10,0,0,1,18.425-4.494,5.393,5.393,0,0,1,1.538-.441V8.8a5.821,5.821,0,0,1-4.937-4.937ZM23.028,7.2h8.334a.833.833,0,1,1,0,1.667H23.028a.833.833,0,1,1,0-1.667Zm-2.5,3.333H33.862a.833.833,0,1,1,0,1.667H20.528A.833.833,0,1,1,20.528,10.529Zm-12.5,5h35a.833.833,0,1,1,0,1.667h-35A.833.833,0,1,1,8.028,15.529Zm0,3.333h35a.833.833,0,1,1,0,1.667h-35A.833.833,0,1,1,8.028,18.862Zm7.817,6.1a3.086,3.086,0,0,1,1.343,1.61,2.379,2.379,0,0,1,.649-.176,2.292,2.292,0,0,1,2.067.8q.729,0,1.458,0a.834.834,0,0,1,0,1.668H19.5a.846.846,0,0,1-.685-.36c-.313-.465-.574-.484-.754-.459a1.557,1.557,0,0,0-.868.535.834.834,0,0,1-1.458-.6,1.638,1.638,0,0,0-.732-1.574,1.646,1.646,0,0,0-1.722.153A2.48,2.48,0,0,0,12.2,28.444a.835.835,0,1,1-1.667-.111,4.2,4.2,0,0,1,1.828-3.161,3.594,3.594,0,0,1,1.74-.6,3.063,3.063,0,0,1,1.748.394Zm21.354,1.4A8.333,8.333,0,1,0,45.527,34.7,8.336,8.336,0,0,0,37.2,26.363Zm0,4.167A4.167,4.167,0,1,1,33.027,34.7,4.167,4.167,0,0,1,37.2,30.529Zm7.77,10.452a9.971,9.971,0,0,1-5.681,3.493l3.452,6.055,1.31-3.359a.833.833,0,0,1,.9-.516l3.563.54Zm-15.523.034L26.02,46.945l3.563-.54a.833.833,0,0,1,.9.516L31.8,50.282l3.343-5.8a9.985,9.985,0,0,1-5.694-3.467Z" transform="translate(-0.529 -0.529)" fill="#00873f"/>
      </g>
    </g>
  </g>
</svg>
